<svg xmlns="http://www.w3.org/2000/svg" viewBox="0 0 76 76"><defs><filter id="a" width="98" height="98" x="-12" y="-12" filterUnits="userSpaceOnUse"><feOffset dx="2" dy="2" in="SourceGraphic" result="FeOffset1110Out"/><feGaussianBlur in="FeOffset1110Out" result="FeGaussianBlur1111Out" stdDeviation="0.8 0.8"/></filter><mask id="b" width="2" height="2" x="-1" y="-1"><path fill="#fff" d="M0 0h72v72H0z"/><path d="M36 72C16.118 72 0 55.882 0 36S16.118 0 36 0s36 16.118 36 36-16.118 36-36 36z"/></mask></defs><g filter="url(#a)"><path fill="none" d="M36 72C16.118 72 0 55.882 0 36S16.118 0 36 0s36 16.118 36 36-16.118 36-36 36z" mask="url(&quot;#b&quot;)"/><path fill-opacity=".18" d="M36 72C16.118 72 0 55.882 0 36S16.118 0 36 0s36 16.118 36 36-16.118 36-36 36z"/></g><path fill="#fff" d="M36 72C16.118 72 0 55.882 0 36S16.118 0 36 0s36 16.118 36 36-16.118 36-36 36z"/><g><path fill="none" stroke="#0f0f0f" stroke-linecap="round" stroke-linejoin="round" stroke-miterlimit="20" stroke-width="2" d="M40 27v0l-8 9v0l8 9v0"/></g></svg>
