<svg xmlns="http://www.w3.org/2000/svg" width="180" height="53" viewBox="0 0 180 53"><defs><linearGradient id="jt1vb" x1="160.56" x2="180" y1="39.86" y2="39.86" gradientUnits="userSpaceOnUse"><stop offset="0" stop-color="#f0aa3f"/><stop offset=".32" stop-color="#eea137"/><stop offset=".75" stop-color="#ec8f26"/></linearGradient><clipPath id="jt1va"><path d="M41.061 27.013c0 8.17-6.73 14.796-15.038 14.796-8.305 0-15.038-6.625-15.038-14.796 0-8.174 6.733-14.799 15.038-14.799 8.308 0 15.038 6.625 15.038 14.799zM26.023 1.405C11.65 1.405 0 12.868 0 27.013c0 14.14 11.65 25.604 26.023 25.604 14.372 0 26.025-11.464 26.025-25.604 0-14.145-11.653-25.608-26.025-25.608z"/></clipPath></defs><g><g><g><path fill="#f0aa3f" d="M51.266 0a4.742 4.742 0 1 0 .001 9.485A4.742 4.742 0 0 0 51.266 0z"/></g><g><g><g/><g clip-path="url(#jt1va)"><path fill="#e9bd62" d="M42.604 37.336c0 2.944-2.426 5.332-5.417 5.332-2.995 0-5.421-2.388-5.421-5.332 0-2.945 2.426-5.334 5.42-5.334 2.992 0 5.418 2.39 5.418 5.334z"/></g><g clip-path="url(#jt1va)"><path fill="#ed7617" d="M47.306 47.374c0 3.974-3.274 7.197-7.313 7.197-4.041 0-7.316-3.223-7.316-7.197s3.275-7.197 7.316-7.197c4.04 0 7.313 3.223 7.313 7.197z"/></g><g clip-path="url(#jt1va)"><path fill="#f4dcae" d="M42.254 4.715c0 2.326-1.92 4.214-4.285 4.214-2.367 0-4.284-1.888-4.284-4.214 0-2.33 1.917-4.217 4.284-4.217 2.364 0 4.285 1.886 4.285 4.217z"/></g><g clip-path="url(#jt1va)"><path fill="#e45827" d="M34.896 49.599c0 2.99-2.467 5.414-5.504 5.414-3.036 0-5.502-2.425-5.502-5.414 0-2.99 2.466-5.412 5.502-5.412 3.037 0 5.504 2.423 5.504 5.412z"/></g><g clip-path="url(#jt1va)"><path fill="#f0aa3f" d="M36.776 39.299c0 3.974-3.276 7.195-7.317 7.195-4.039 0-7.312-3.22-7.312-7.195 0-3.976 3.273-7.199 7.312-7.199 4.041 0 7.317 3.223 7.317 7.199z"/></g><g clip-path="url(#jt1va)"><path fill="#f0aa3f" d="M54.3 30.19c0 4.408-3.63 7.983-8.111 7.983-4.481 0-8.112-3.575-8.112-7.982 0-4.41 3.63-7.983 8.112-7.983 4.48 0 8.11 3.574 8.11 7.983z"/></g><g clip-path="url(#jt1va)"><path fill="#f0aa3f" d="M26.644 7.433c0 5.927-4.881 10.73-10.905 10.73-6.02 0-10.901-4.803-10.901-10.73 0-5.925 4.881-10.728 10.901-10.728 6.024 0 10.905 4.803 10.905 10.728z"/></g><g clip-path="url(#jt1va)"><path fill="#efcd87" d="M35.188 2.842c0 2.631-2.166 4.764-4.84 4.764s-4.843-2.133-4.843-4.764c0-2.63 2.17-4.761 4.843-4.761 2.674 0 4.84 2.13 4.84 4.761z"/></g><g clip-path="url(#jt1va)"><path fill="#f4dcae" d="M53.777 18.447c0 3.195-2.635 5.787-5.881 5.787-3.248 0-5.88-2.592-5.88-5.787 0-3.197 2.632-5.787 5.88-5.787 3.246 0 5.88 2.59 5.88 5.787z"/></g><g clip-path="url(#jt1va)"><path fill="#ec8f26" d="M9.737 35.287c0 3.196-2.634 5.786-5.882 5.786-3.248 0-5.881-2.59-5.881-5.786 0-3.196 2.633-5.786 5.88-5.786 3.249 0 5.883 2.59 5.883 5.786z"/></g><g clip-path="url(#jt1va)"><path fill="#f4dcae" d="M28.246 4.91c0 2.329-1.917 4.217-4.285 4.217-2.367 0-4.284-1.888-4.284-4.216 0-2.329 1.917-4.217 4.284-4.217 2.368 0 4.285 1.888 4.285 4.217z"/></g><g clip-path="url(#jt1va)"><path fill="#ec8f26" d="M54.199 22.261c0 1.492-1.224 2.698-2.738 2.698-1.512 0-2.74-1.206-2.74-2.698 0-1.487 1.228-2.693 2.74-2.693 1.514 0 2.738 1.206 2.738 2.693z"/></g><g clip-path="url(#jt1va)"><path fill="#ec8f26" d="M13.637 16.7c0 5.209-4.291 9.432-9.583 9.432-5.296 0-9.587-4.223-9.587-9.432 0-5.209 4.291-9.43 9.587-9.43 5.292 0 9.583 4.221 9.583 9.43z"/></g><g clip-path="url(#jt1va)"><path fill="#efcd87" d="M48.021 12.214c0 3.25-2.676 5.884-5.982 5.884-3.302 0-5.978-2.634-5.978-5.884 0-3.25 2.676-5.884 5.978-5.884 3.306 0 5.982 2.633 5.982 5.884z"/></g><g clip-path="url(#jt1va)"><path fill="#e9bd62" d="M27.97 12.214c0 3.976-3.278 7.195-7.317 7.195-4.04 0-7.315-3.219-7.315-7.195 0-3.976 3.275-7.197 7.315-7.197 4.04 0 7.316 3.221 7.316 7.197z"/></g><g clip-path="url(#jt1va)"><path fill="#e45827" d="M21.77 42.678c0 4.917-4.052 8.904-9.051 8.904-4.999 0-9.049-3.987-9.049-8.904 0-4.916 4.05-8.903 9.049-8.903s9.05 3.987 9.05 8.903z"/></g><g clip-path="url(#jt1va)"><path fill="#f4dcae" d="M38.03 12.214c0 3.71-3.056 6.714-6.825 6.714-3.768 0-6.826-3.005-6.826-6.714 0-3.709 3.058-6.716 6.826-6.716 3.77 0 6.825 3.007 6.825 6.716z"/></g><g clip-path="url(#jt1va)"><path fill="#e45827" d="M6.887 28.1c0 2.515-2.073 4.554-4.63 4.554-2.558 0-4.627-2.04-4.627-4.555 0-2.517 2.07-4.557 4.628-4.557 2.556 0 4.63 2.04 4.63 4.557z"/></g><g clip-path="url(#jt1va)"><path fill="#ed7617" d="M28.353 26.768c0 6.583-5.423 11.918-12.11 11.918-6.692 0-12.111-5.335-12.111-11.918 0-6.582 5.419-11.917 12.11-11.917 6.688 0 12.111 5.335 12.111 11.917z"/></g><g clip-path="url(#jt1va)"><path fill="#ed7617" d="M29.222 46.49c0 4.05-3.337 7.333-7.452 7.333-4.117 0-7.454-3.283-7.454-7.333 0-4.049 3.337-7.334 7.454-7.334 4.115 0 7.452 3.285 7.452 7.334z"/></g><g clip-path="url(#jt1va)"><path fill="#ec8f26" d="M50.252 39.947c0 2.945-2.425 5.334-5.42 5.334-2.992 0-5.42-2.389-5.42-5.334 0-2.944 2.428-5.331 5.42-5.331 2.995 0 5.42 2.387 5.42 5.331z"/></g><g clip-path="url(#jt1va)"><path fill="#f0aa3f" d="M42.428 6.902c0 1.488-1.227 2.695-2.741 2.695-1.512 0-2.736-1.207-2.736-2.695 0-1.487 1.224-2.695 2.736-2.695 1.514 0 2.741 1.208 2.741 2.695z"/></g><g clip-path="url(#jt1va)"><path fill="#ed7617" d="M7.537 38.53c0 2.62-2.162 4.745-4.825 4.745-2.663 0-4.821-2.125-4.821-4.746 0-2.62 2.158-4.745 4.821-4.745s4.825 2.125 4.825 4.745z"/></g><g clip-path="url(#jt1va)"><path fill="#e9bd62" d="M44.635 20.65c0 3.311-2.73 6-6.098 6-3.367 0-6.098-2.689-6.098-6 0-3.314 2.73-6 6.098-6s6.098 2.686 6.098 6z"/></g><g clip-path="url(#jt1va)"><path fill="#ed7617" d="M43.044 35.928c0 1.572-1.297 2.845-2.893 2.845-1.597 0-2.892-1.273-2.892-2.845 0-1.573 1.295-2.846 2.892-2.846 1.596 0 2.893 1.273 2.893 2.846z"/></g><g clip-path="url(#jt1va)"><path fill="#ed7617" d="M43.491 15.81c0 1.03-.851 1.87-1.901 1.87-1.052 0-1.903-.84-1.903-1.87 0-1.036.851-1.875 1.903-1.875 1.05 0 1.901.84 1.901 1.874z"/></g></g></g><g><g><path fill="url(#jt1vb)" d="M180 39.861c0 5.367-4.35 9.72-9.717 9.72-5.365 0-9.72-4.353-9.72-9.72 0-5.366 4.355-9.717 9.72-9.717 5.366 0 9.717 4.351 9.717 9.717z"/></g><g><g/><g><path fill="#4d4d4d" d="M119.97 20.034a.88.88 0 0 0-1.38-.01l-6.163 7.68H82.428a.879.879 0 1 0 0 1.758h30.417c.27 0 .522-.122.686-.328l5.734-7.144 5.352 6.885a.88.88 0 0 0 1.39-1.077z"/></g><g><path fill="#4d4d4d" d="M135.696 41.799a.876.876 0 0 0-1.03.693l-.929 4.778a.871.871 0 0 0 .862 1.045.882.882 0 0 0 .862-.71l.929-4.776a.88.88 0 0 0-.694-1.03z"/></g><g><path fill="#4d4d4d" d="M142.703 41.782a.878.878 0 0 0-.878.879v4.776a.878.878 0 1 0 1.758 0V42.66a.878.878 0 0 0-.88-.879z"/></g><g><path fill="#4d4d4d" d="M149.882 41.782h-.013a.882.882 0 0 0-.867.891l.07 4.776a.878.878 0 0 0 .88.866h.011a.876.876 0 0 0 .864-.89l-.067-4.777a.877.877 0 0 0-.878-.866z"/></g><g><path fill="#4d4d4d" d="M157.917 42.474a.88.88 0 0 0-1.718.373l1.033 4.774a.884.884 0 0 0 1.043.674.87.87 0 0 0 .674-1.043z"/></g><g><path fill="#4d4d4d" d="M171.192 28.23a.833.833 0 0 0 .04-.244l-.03-7.664h7.08a.878.878 0 1 0 0-1.756h-7.09l-.03-7.671a.879.879 0 0 0-.88-.877h-.003a.883.883 0 0 0-.876.884l.07 17.091c0 .08.015.156.037.229a10.906 10.906 0 0 1 1.682.009z"/></g><g><path fill="#4d4d4d" d="M158.793 37.689a.875.875 0 0 0-.876-.878H147.21v-4.378h9.518a.879.879 0 0 0 0-1.758h-9.518v-4.376h7.79a.88.88 0 0 0 .879-.878.882.882 0 0 0-.88-.878h-2.565l.903-8.159a.882.882 0 0 0-.779-.972.88.88 0 0 0-.968.778l-.924 8.353h-3.456V12.345h9.763l.065 12.648a.879.879 0 0 0 .878.873h.007a.874.874 0 0 0 .87-.882l-.068-13.52c0-.032-.007-.064-.007-.095-.002-.025-.002-.054-.011-.08-.007-.032-.018-.061-.027-.092-.01-.024-.015-.049-.024-.072-.012-.031-.03-.058-.047-.085-.01-.022-.02-.044-.036-.066-.016-.027-.038-.049-.06-.076-.018-.016-.029-.036-.047-.052-.02-.024-.049-.042-.074-.064l-.053-.043c-.03-.018-.061-.033-.09-.049-.02-.009-.038-.023-.06-.033a.773.773 0 0 0-.11-.032c-.018-.006-.036-.013-.055-.018a.964.964 0 0 0-.175-.018h-23.104c-.031 0-.06.007-.091.009-.029.005-.056.005-.085.01-.03.006-.056.017-.085.026-.026.009-.055.014-.082.025-.025.011-.05.03-.074.042-.023.013-.052.023-.072.042-.024.014-.044.032-.065.05a1.085 1.085 0 0 0-.067.055c-.019.02-.035.043-.051.063-.018.023-.038.043-.054.069l-.04.072c-.013.026-.031.05-.042.076a.654.654 0 0 0-.025.085c-.008.026-.018.053-.024.08-.007.03-.007.062-.01.09-.003.03-.01.057-.01.086l.002.001-.002.002.07 13.521a.88.88 0 0 0 .879.873h.005a.879.879 0 0 0 .875-.882l-.067-12.64h9.822v12.199H142l-.921-8.353a.88.88 0 0 0-1.747.194l.903 8.159h-2.57a.877.877 0 0 0-.874.878c0 .485.392.878.875.878h7.787v4.376h-9.485a.878.878 0 1 0 0 1.758h9.485v4.378h-10.678a.879.879 0 0 0 0 1.756h23.142a.875.875 0 0 0 .876-.878z"/></g></g></g><g><g><path fill="#4d4d4d" d="M63.251 22.922h13.467c.186 0 .342-.06.461-.18a.564.564 0 0 0 .178-.408c0-.152-.06-.29-.187-.417-.115-.103-.273-.154-.47-.154h-6.015v-3.342a.585.585 0 0 0-.212-.476.588.588 0 0 0-.414-.18.594.594 0 0 0-.451.135.56.56 0 0 0-.201.452v3.411h-6.018a.683.683 0 0 0-.484.169.676.676 0 0 0-.174.387.594.594 0 0 0 .11.408.5.5 0 0 0 .41.195z"/></g><g><path fill="#4d4d4d" d="M63.608 18.155c.146.116.33.161.56.132 1.366-.243 2.675-.853 3.89-1.812.941-.759 1.61-1.534 1.984-2.309.362.755 1.036 1.52 2.006 2.274 1.224.982 2.546 1.604 3.93 1.849.04.004.077.009.113.009a.63.63 0 0 0 .404-.141.638.638 0 0 0 .244-.413.653.653 0 0 0-.094-.467.642.642 0 0 0-.454-.265 7.085 7.085 0 0 1-3.886-1.902c-1.077-1.018-1.62-2.133-1.62-3.31V11.1h4.917c.363 0 .573-.214.573-.588 0-.373-.21-.589-.573-.589H64.538c-.396 0-.624.216-.624.583-.006.181.041.328.139.431.103.107.259.163.469.163h4.885v.699c0 1.177-.552 2.296-1.642 3.326-1.09 1.04-2.369 1.662-3.797 1.852a.7.7 0 0 0-.507.28.639.639 0 0 0-.112.482c.029.178.12.319.259.415z"/></g><g><path fill="#4d4d4d" d="M74.674 44.348v1.907c0 .146-.044.25-.133.31-.06.044-.191.095-.465.095h-8.03c-.325 0-.465-.058-.523-.101-.069-.062-.105-.192-.105-.373V44.4c0-.187.033-.317.09-.375.086-.076.254-.118.49-.118h8.044c.23 0 .398.036.5.11l.007.006c.029.02.125.076.125.324zm.83-1.226c-.3-.248-.693-.375-1.169-.375h-8.649c-.478 0-.869.136-1.16.402-.281.267-.424.636-.424 1.098v2.143c0 .44.147.795.424 1.049.268.251.651.382 1.142.382h8.801c.45 0 .818-.142 1.095-.419.28-.266.422-.617.422-1.046v-2.247c0-.41-.163-.742-.481-.987z"/></g><g><path fill="#4d4d4d" d="M77.17 39.575a.692.692 0 0 0-.47-.155h-1.304c.147-.332.266-.674.362-1.023.15-.581.228-1.217.228-1.889v-.822c0-.579-.197-1.037-.584-1.363-.368-.306-.866-.462-1.48-.462h-9.42c-.384 0-.605.216-.605.589s.221.586.605.586h9.266c.285 0 .507.067.665.192.161.134.24.312.24.542v.704c0 .704-.06 1.3-.17 1.769a5.679 5.679 0 0 1-.432 1.177H63.389c-.553 0-.65.355-.658.561-.012.186.03.333.123.438.1.107.25.161.446.161h13.418a.635.635 0 0 0 .461-.179.564.564 0 0 0 .178-.41c0-.153-.06-.289-.178-.408z"/></g></g></g></g></svg>