<svg xmlns="http://www.w3.org/2000/svg" viewBox="0 0 96 96"><g><g><path fill="none" stroke="#666" stroke-miterlimit="20" stroke-width="2" d="M1.5 48C1.5 22.319 22.319 1.5 48 1.5S94.5 22.319 94.5 48 73.681 94.5 48 94.5 1.5 73.681 1.5 48z"/></g><g><path fill="none" stroke="#666" stroke-linecap="round" stroke-linejoin="round" stroke-miterlimit="20" stroke-width="2" d="M28.5 34.5v0l2 37c0 1.65 1.35 3 3 3h29c1.65 0 3-1.35 3-3l2-37v0"/></g><g><g><path fill="none" stroke="#666" stroke-linecap="round" stroke-linejoin="round" stroke-miterlimit="20" stroke-width="2" d="M48 40.5v28"/></g><g><path fill="none" stroke="#666" stroke-linecap="round" stroke-linejoin="round" stroke-miterlimit="20" stroke-width="2" d="M38.5 40.5v28"/></g><g><path fill="none" stroke="#666" stroke-linecap="round" stroke-linejoin="round" stroke-miterlimit="20" stroke-width="2" d="M57.5 40.5v28"/></g></g><g><path fill="none" stroke="#666" stroke-linecap="round" stroke-linejoin="round" stroke-miterlimit="20" stroke-width="2" d="M52.466 28.609v0l-.356-4.576a.535.535 0 0 0-.533-.533h-7.154a.535.535 0 0 0-.533.533l-.356 4.576v0z"/></g><g><path fill="none" stroke="#666" stroke-linecap="round" stroke-linejoin="round" stroke-miterlimit="20" stroke-width="2" d="M26.5 34.5a2 2 0 0 1-2-2v-2a2 2 0 0 1 2-2h43a2 2 0 0 1 2 2v2a2 2 0 0 1-2 2z"/></g></g></svg>
